<?xml version="1.0" encoding="utf-8"?>
<!DOCTYPE svg PUBLIC "-//W3C//DTD SVG 1.1//EN" "http://www.w3.org/Graphics/SVG/1.1/DTD/svg11.dtd">
<svg version="1.1" id="VARG" xmlns="http://www.w3.org/2000/svg" xmlns:xlink="http://www.w3.org/1999/xlink" x="0px" y="0px"
 width="214px" height="217px" viewBox="0 0 214 217" enable-background="new 0 0 214 217" xml:space="preserve">
<g>
<path d="M183.072,192.687v-4.101l1.375,0.133l3.65-0.397l3.518-1.032l2.699-1.481l2.513-1.799l2.169-2.169l1.799-2.513l1.322-2.513
l1.005-2.671l0.767-2.725l0.556-3.651l0.344-3.279l0.08-3.28l-0.238-3.307l-0.503-3.228l-0.873-3.227l-0.899-2.328l-1.031-2.037
l-1.375-2.037l-1.561-1.905l-1.561-1.455l-1.958-1.27l-2.406-1.19l-3.096-1.084l-3.253-0.529l-3.042-0.052v-3.704l0.608-0.132
l3.386-0.582l3.413-0.026l3.307,0.556l3.28,1.084l2.99,1.613l1.983,1.535l1.852,1.746l1.984,2.407l1.692,2.672l1.35,2.884
l0.926,2.989l0.767,3.359l0.477,3.465l0.238,3.412l-0.053,3.413l-0.185,3.518l-0.291,3.254l-0.423,2.751l-0.556,2.619l-0.899,2.539
l-1.005,2.302l-1.375,2.063l-1.613,2.09l-1.852,1.798l-2.169,1.72l-2.434,1.455l-3.121,1.481l-3.307,0.952l-3.412,0.423
l-3.466-0.132L183.072,192.687L183.072,192.687z M183.072,186.708l3.174,0.053l3.941-0.847l3.491-1.746l2.487-2.037l1.798-2.011
l1.561-2.275l1.19-2.459l0.846-2.566l0.793-3.783l0.477-3.888l0.053-1.931l0.105-1.905l-0.238-3.889l-0.582-3.227l-1.455-4.206
l-2.196-3.704l-1.852-2.09l-3.121-2.38l-2.381-1.138l-2.116-0.662l-2.857-0.555l-3.121,0.026v8.227h0.37l2.143,0.37l1.931,0.794
l1.772,1.296l1.375,1.878l1.084,2.275l1.138,2.857l0.608,3.227l0.053,1.667l0.053,1.64l-0.396,3.28l-0.899,3.174l-1.402,2.99
l-1.111,1.693l-1.164,1.243l-1.376,0.952l-2.143,0.899l-2.037,0.291V186.708z M183.072,133.855v3.704h-0.238l-3.228,0.528
l-3.122,0.979l-2.857,1.614l-2.513,2.143l-1.508,1.613l-1.376,1.746l-1.19,1.904l-1.031,1.932l-0.899,2.089v-18.093h7.539v4.788
l3.359-2.328l2.407-1.19l2.619-0.952L183.072,133.855L183.072,133.855z M183.072,139.49l-1.719,0.026l-3.968,1.164l-1.852,0.952
l-2.17,1.508l-1.587,1.534l-2.46,3.175l-1.138,2.089l-1.031,2.408l-0.82,2.804l-0.661,3.598l-0.265,3.703l0.026,3.65l0.397,3.703
l0.74,3.598l0.952,2.513l1.323,2.354l1.613,2.143l1.534,1.667l1.852,1.613l3.201,1.878l4.232,1.111l1.799,0.026v-8.465
l-0.292,0.026l-2.328-0.317l-2.063-0.847l-1.905-1.296l-1.667-1.931l-1.084-2.91l-0.82-3.254l-0.37-3.333l0.053-3.307l0.476-3.333
l0.899-3.201l1.006-2.037l1.164-1.667l1.296-1.243l1.852-1.084l2.037-0.661l1.746-0.133V139.49L183.072,139.49z M183.072,188.586
v4.101l-1.561-0.291l-3.571-1.164l-3.359-1.72l-1.931-0.952v22.802h-7.539v-36.743l0.899,2.037l1.031,1.957l1.243,1.852
l1.376,1.693l1.561,1.561l2.831,2.143l3.201,1.561l3.545,0.953L183.072,188.586L183.072,188.586z M100.804,214.721v-5.846
l1.508,0.026l3.465-0.317l2.963-0.688l2.883-1.084l2.672-1.561l2.354-1.931l1.534-1.614l1.138-1.904l0.793-2.09l0.343-2.169
v-61.528h7.301v63.38l-0.291,2.223l-0.609,2.169l-1.296,2.328l-1.666,2.143l-1.878,1.852l-2.195,1.508l-3.016,1.561l-3.571,1.428
l-3.65,1.084l-3.518,0.662L100.804,214.721L100.804,214.721z M100.804,207.183l2.619-0.026l4.047-0.768l3.889-1.428l2.354-1.508
l2.037-1.852l1.666-2.222l0.768-1.799l0.37-1.958l0.106-1.931l0.025-19.099l-0.979,2.222l-1.19,2.09l-1.375,1.984l-1.614,1.799
l-1.745,1.667l-3.042,2.037l-3.492,1.375l-3.729,0.714h-0.714v4.206l1.137-0.238l3.042-1.031l3.28-1.614l2.381-1.296l0.026,5.661
l-0.423,1.613l-0.794,1.402l-1.138,1.19l-1.402,0.82l-2.328,0.556l-2.407,0.186l-1.375-0.026V207.183L100.804,207.183z
 M100.804,186.893l3.227-0.555l3.201-1.19l1.984-1.138l1.693-1.428l1.772-1.64l1.428-1.667l1.217-1.905l1.005-2.063l0.793-2.143
l0.768-3.281l0.476-3.359l0.08-3.359l-0.186-3.359l-0.502-3.386l-0.82-3.254l-1.085-2.856l-1.534-2.698l-1.931-2.381l-2.222-2.116
l-2.513-1.72l-3.783-1.455l-3.068-0.396v8.174l1.508,0.026l2.089,0.582l2.275,1.322l1.772,1.905l1.296,2.301l0.608,2.513
l0.317,2.751l0.159,3.624l-0.053,1.799v1.746l-0.317,2.883l-0.688,2.751l-1.455,2.328l-1.957,1.958l-1.667,1.032l-1.719,0.661
l-1.799,0.291h-0.371V186.893L100.804,186.893z M100.804,137.585l0.952,0.026l3.598,0.793l3.386,1.534l1.719,1.085l1.878,1.561
l1.535,1.561l1.401,1.719l1.429,2.275l1.799,3.888v-18.014h-0.053h-7.565l0.026,4.814l-2.54-2.116l-2.83-1.72l-3.068-1.27
l-1.667-0.37V137.585L100.804,137.585z M140.642,192.554v-58.54h-7.539v58.54H140.642L140.642,192.554z M150.165,192.554
l0.053-58.54h-7.777v58.54H150.165L150.165,192.554z M150.218,130.205v-17.062h-17.115v17.062H150.218L150.218,130.205z
 M163.312,211.309v-77.294h-7.46v77.294H163.312z M100.804,133.354v4.232l-2.566-0.08l-3.465,0.529l-3.307,1.085l-3.095,1.666
l-1.693,1.323l-1.667,1.667l-2.09,2.593l-1.613,3.095l-1.27,3.729l-0.529,3.148l-0.37,3.121l-0.106,3.359l0.238,3.413l0.397,3.174
l0.556,2.91l0.899,2.989l1.059,2.407l1.561,2.751l2.037,2.46l2.46,2.09l2.751,1.613l2.989,1.137l3.703,0.714h3.122v4.206
l-1.984,0.396l-3.175,0.079l-3.227-0.317l-3.227-0.714l-3.122-1.243l-2.857-1.693l-2.565-2.143l-1.931-2.09l-1.667-2.274
l-0.529-0.926v-37.827l1.243-1.958l1.561-2.01l1.746-1.825l2.275-1.667l2.513-1.429l2.619-1.031l2.75-0.768l2.804-0.37l2.83-0.053
l2.805,0.291L100.804,133.354L100.804,133.354z M100.804,139.543l-1.958-0.238l-4.101,0.634l-3.994,1.508l-2.222,1.508
l-1.614,1.428l-1.375,1.614l-1.508,2.407l-1.111,2.249l-0.952,2.698l-0.74,3.651l-0.397,5.343l0.397,4.894l0.37,3.068l1.296,4.55
l1.27,2.619l0.291,0.476l1.323,1.905l1.428,1.64l1.455,1.375l2.143,1.667l3.122,1.428l3.333,0.793l3.413,0.159l0.132-0.027v-8.703
h-1.375l-1.561-0.424l-1.323-0.634l-2.486-2.222l-1.693-2.83l-1.138-3.148l-0.476-3.835v-4.26l0.476-3.597l1.005-3.148l1.746-2.645
l2.09-1.931l1.983-1.349l2.09-0.45h0.662V139.543L100.804,139.543z M100.804,199.908v7.274l-1.561,0.026l-4.126-0.688l-3.466-1.323
l-2.989-2.116l-1.692-1.799l-1.297-2.143l-0.714-2.381l-0.185-2.513l7.936-0.079l0.264,1.507l0.714,1.375l1.005,1.138l1.27,0.847
l1.481,0.476l2.354,0.397H100.804L100.804,199.908z M100.804,208.875l-1.958-0.079l-3.439-0.608l-2.91-0.899l-2.275-1.138
l-1.878-1.322l-1.666-1.508l-1.614-1.958l-1.19-2.222l-0.662-2.407l-0.079-2.486h-6.613v3.624l0.45,1.878l0.979,2.672l1.375,2.46
l1.667,2.223l1.613,1.613l1.852,1.455l2.116,1.375l2.275,1.058l2.513,0.847l2.751,0.662l3.042,0.423l3.413,0.212l0.238-0.027
V208.875L100.804,208.875z M76.521,192.554h0.45l-0.45-1.244V192.554z M76.521,143.935v37.827l-0.846-1.534l-0.9-2.063V147.77
l0.477-1.349l1.138-2.275L76.521,143.935L76.521,143.935z M76.521,191.311v1.244h-1.746v-6.349L76.521,191.311L76.521,191.311z
 M76.521,194.247v3.624l-0.185-0.82l-0.239-2.804H76.521z M45.915,154.489l4.391,12.75h-4.391v6.983l14.681-0.026l-14.681-42.933
V154.489L45.915,154.489z M74.774,147.77v30.394l-0.237-0.556l-0.953-4.021l-0.661-4.126l-0.317-4.18v-4.126l0.265-4.153
l0.635-4.074l0.899-4.074L74.774,147.77L74.774,147.77z M74.774,186.205v6.349h-5.978l-22.882-66.582v-12.829h3.729L74.774,186.205
L74.774,186.205z M45.915,183.11h9.655l3.333,9.444h8.2l-5.846-16.506H45.915V183.11z M39.91,137.136l6.005,17.354v-23.226
l-6.005-17.538V137.136L39.91,137.136z M45.915,167.239H39.91v6.983h6.005V167.239L45.915,167.239z M45.915,113.144v12.829
l-4.418-12.829H45.915L45.915,113.144z M45.915,176.048v7.063H39.91v-7.063H45.915z M33.588,154.938l6.111-18.411l0.211,0.608
v-23.41l-0.211-0.635l-6.111,18.067V154.938L33.588,154.938z M39.91,167.239h-6.322v6.983h6.322V167.239L39.91,167.239z
 M39.91,176.048v7.063h-6.322v-7.063H39.91L39.91,176.048z M33.588,125.312V113.09h4.074L33.588,125.312z M29.515,167.239
l4.073-12.301v-23.781l-14.602,43.091l14.602-0.026v-6.983H29.515L29.515,167.239z M33.588,113.09v12.221l-22.484,67.243H2.771
L29.7,113.09H33.588L33.588,113.09z M33.588,176.048h-15.21l-5.502,16.506h8.041l3.095-9.444h9.576V176.048z"/>
<polygon points="168.946,91.161 168.893,92.352 168.761,93.489 168.47,94.68 168.126,95.817 167.677,96.901 167.147,97.96 
166.486,98.938 165.771,99.891 164.952,100.79 164.105,101.558 163.153,102.298 162.174,102.933 161.116,103.488 159.979,103.911 
158.894,104.308 157.704,104.546 156.513,104.679 155.35,104.784 80.938,104.784 79.748,104.679 78.558,104.546 77.42,104.308 
76.282,103.911 75.198,103.488 74.166,102.933 73.161,102.298 72.209,101.558 71.31,100.79 70.516,99.891 69.802,98.938 
69.193,97.96 68.611,96.901 68.188,95.817 67.817,94.68 67.58,93.489 67.395,92.352 67.342,91.161 67.342,16.697 67.395,15.507 
67.58,14.37 67.817,13.179 68.188,12.042 68.611,10.957 69.193,9.925 69.802,8.92 70.516,7.968 71.31,7.122 72.209,6.328 
73.161,5.561 74.166,4.952 75.198,4.37 76.282,3.947 77.42,3.577 78.558,3.339 79.748,3.18 80.938,3.127 155.35,3.127 
156.513,3.18 157.704,3.339 158.894,3.577 159.979,3.947 161.116,4.37 162.174,4.952 163.153,5.561 164.105,6.328 164.952,7.122 
165.771,7.968 166.486,8.92 167.147,9.925 167.677,10.957 168.126,12.042 168.47,13.179 168.761,14.37 168.893,15.507 
168.946,16.697 "/>
<polygon fill="#FFDE00" points="167.518,91.161 167.465,92.22 167.333,93.251 167.095,94.309 166.75,95.288 166.38,96.293 
165.904,97.245 165.349,98.145 164.687,98.991 163.973,99.759 163.153,100.473 162.359,101.134 161.46,101.689 160.508,102.166 
159.502,102.589 158.524,102.933 157.466,103.118 156.434,103.25 155.35,103.303 80.938,103.303 79.907,103.25 78.849,103.118 
77.816,102.933 76.759,102.589 75.833,102.166 74.881,101.689 73.981,101.134 73.108,100.473 72.368,99.759 71.601,98.991 
70.992,98.145 70.41,97.245 69.907,96.293 69.511,95.288 69.193,94.309 68.955,93.251 68.797,92.22 68.77,91.161 68.77,16.697 
68.797,15.666 68.955,14.607 69.193,13.576 69.511,12.57 69.907,11.565 70.41,10.64 70.992,9.74 71.601,8.92 72.368,8.126 
73.108,7.412 73.981,6.751 74.881,6.169 75.833,5.693 76.759,5.27 77.816,4.979 78.849,4.741 79.907,4.608 80.938,4.556 
155.35,4.556 156.434,4.608 157.466,4.741 158.524,4.979 159.502,5.27 160.508,5.693 161.46,6.169 162.307,6.751 163.153,7.412 
163.973,8.126 164.687,8.867 165.349,9.74 165.904,10.64 166.38,11.565 166.75,12.57 167.095,13.576 167.333,14.607 
167.465,15.666 167.518,16.697 "/>
<g>
<path d="M137.547,77.063v-4.365l0.211-0.529v-0.82l-0.211-0.714V42.171l0.053-0.105l0.291-0.582l1.19,0.423l1.984,0.476h0.847
l0.82-0.133l0.661-0.37l0.608-0.714l0.397-0.952l0.185-0.847l0.053-0.873l-0.238-0.847l-0.477-0.793l-0.714-0.767l-0.82-0.529
l-0.847-0.318l-0.952-0.053l-0.899,0.106l-0.847,0.371l-0.952,0.608l-0.344,0.317v-2.751l0.45-0.211l1.137-0.423l1.085-0.212
h1.137l1.138,0.212l1.005,0.37l0.926,0.476l0.819,0.609l0.715,0.661l0.476,0.767l0.371,0.767l0.291,0.741l0.132,0.767l0.053,0.9
l-0.106,0.899l-0.264,1.005l-0.529,1.27l-0.583,1.376l-0.477,1.058l0.106,0.423l0.423,0.264l1.481,1.535l1.323,1.64l1.137,1.852
l0.899,1.905l0.715,2.037l0.714,1.746l0.477,1.243l0.74,1.084l1.005,0.9l1.137,0.661l2.09,1.005v1.613l1.904,0.424l-0.396,0.714
l-0.37,0.952l0.979,0.847l-0.212,1.085l-0.053,0.714l1.138,1.138l-0.952,1.481l-0.291,0.714l-0.08,0.794l0.132,0.767l0.424,0.661
l0.846,0.979l1.243,0.899v1.138l-0.899,1.243l-0.053,0.952l-0.105,0.899l-0.186,0.899l-0.238,0.899l-3.782,0.423l-1.138-1.19
l1.904-2.592l0.371-0.767l0.105-0.899l-0.211-0.847l-0.502-0.714l-3.042-4.549l-0.662-1.032l-0.714-1.005l-0.608-0.82
l-0.661-0.555l-0.768-0.476l-1.005-0.344l-1.27-0.317l-1.508-0.238l-1.588-0.291l-1.507-0.317l-1.455-0.397l-1.19-0.317
l-1.006-0.238l-0.767-0.159l-0.608-0.026l0.397,2.275l3.915,0.899l-0.265,0.714l-0.82,1.375v0.371l0.608,0.476l-0.317,0.846
l-0.238,0.714l-0.186,0.608l-0.344,0.476l-0.423,0.529l-0.344,0.714l-0.132,0.952l-0.105,0.899l-0.265,0.662l-0.529,0.476
l-0.714,0.37l-0.952,0.344L137.547,77.063z M91.414,28.495l-0.08-0.476l-0.291-0.371l-0.423-0.185h-0.265v-2.751l0.265-0.106
l4.259-1.402l2.83-1.005l0.688-0.185l0.661,0.08l0.502,0.396l0.344,0.556l0.476,1.323l0.132,1.349l-0.292,1.64l-0.555,1.323
l-0.715,1.058l-1.137-0.661l-0.608,1.508l-0.82-0.371l-0.847-0.106l-0.847,0.186l-0.767,0.396l-0.424,0.662l-0.105,0.741
l0.344,0.873l0.529,0.846l0.661,0.793l0.793,0.635l0.953,0.424l1.005,0.238l1.084,0.08l1.084-0.186l-0.185,2.09l-0.424,0.423
l-0.582,0.185H97.63l-1.005-0.185l-1.032-0.317l-1.243-0.476l-1.138-0.635l-0.793-0.556l-0.159,0.132l2.381,3.942l0.661,0.608
l0.662,0.529l0.82,0.423l0.794,0.291l-1.005,0.477l-1.084,0.185l-1.085-0.053l-1.084-0.291l-1.297-0.741l-0.926-0.714
l-0.105,0.185l0.476,0.608l0.317,0.767l0.212,0.661l-0.159,0.661l-0.503,0.424l-0.714,0.105l-0.265-0.053v-14.92h0.265
l0.423-0.185l0.291-0.397L91.414,28.495L91.414,28.495z M137.547,33.838l-0.635,0.318l-1.058,0.793l-1.005,1.032l-0.794,0.952
l-0.767,1.058l-0.714,1.164l-0.847,1.429l-0.952,1.666l-0.741,1.323l-0.661,1.005l-0.45,0.477l-0.688,0.37l-0.635,0.106
l-0.662-0.106l-0.608-0.423l-0.424-0.662l-0.158-0.767l0.158-0.768l0.265,0.45l0.344,0.423l0.423,0.317l0.583,0.106h0.555
l0.423-0.238l0.291-0.37l0.132-0.477v-0.582l-0.237-0.608l-0.371-0.582l-0.528-0.423l-0.608-0.317l-0.662-0.159l-0.714-0.053
l-0.608,0.212l-0.582,0.265l-0.502,0.476l-0.423,0.635l-0.344,0.741l-0.186,0.767l-0.053,0.767l0.106,0.847l0.318,1.005
l0.37,0.979l-0.926-0.053l-1.772-1.138l-0.555,2.275l-0.159,0.158l-0.423,0.053l-0.238-0.211l-0.662-1.085l-0.477-0.37
l-0.607,0.132l-0.371,0.477l-0.344,1.243l-0.529,1.19l-1.455-1.825l-0.846-0.899l-1.561,2.195l-1.35-1.322l-1.137-1.243
l-0.899,1.481l-0.264,0.264l-0.344-0.027l-0.292-0.291l-0.714-1.323l-0.556-0.159l-0.555,0.106l-0.371,0.291l-0.37,0.555
l-0.423,0.609l-0.768,0.661l-1.084,0.582l0.185-1.429l0.079-1.19l0.053-0.741l-0.238-0.582l-0.555-0.291l-0.582,0.105l-3.73,2.513
l0.238-0.899l0.186-0.9l0.186-0.899l0.105-0.9l-1.296-1.084l-1.693,0.714l-1.799,0.211l-1.719-0.132v0.053l-0.053,0.185
l-0.608,1.138l-0.82,0.424l-1.217-0.186l-0.211-0.053v37.906l0.211-0.688l0.899-1.614l1.084-1.27l0.582-0.635l0.423-0.555
l0.08-0.582l0.053-0.608l0.053-0.556l0.133-0.635l0.476-0.714l0.423-0.476l0.291-0.45v-0.582l0.054-0.793l0.237-1.006l0.133-0.714
l-0.053-0.661l-0.371-0.582l-0.37-0.556v-0.423l0.477-0.899l1.217-1.799l-1.323-0.582l-0.793-0.371l-0.582-0.371l-0.238-0.582
l-0.079-0.608l-0.053-0.714l4.391,1.693l0.45,1.905l0.608,2.407l0.318,1.375l0.238,1.111v0.926l-0.185,0.873l-0.317,0.793
l-0.529,0.662l-0.899,0.714L95.91,76.56l0.423,0.635l0.476,0.477l2.963,1.931l0.556-0.847l1.005-1.375l1.032-0.846l1.375-0.714
l1.429-0.662l-0.344-0.476l-0.424-0.344l-0.423-0.291l-0.291-0.371l0.053-0.608l0.291-0.582l0.714-0.609l-0.714-1.084l0.714-0.952
l1.032-0.899l-0.37-0.847l-0.397-0.82l-0.185-0.793l0.105-0.873l0.291-0.794l1.613-0.185l1.667,0.185l2.698-0.132l1.799,0.132
v0.529l-0.133,0.952l-0.343,1.138l-0.318,1.217l-0.37,1.375l-0.45,1.27l-0.502,0.953l-0.662,0.899l-0.898,0.9l-1.376,1.19
l-1.984,1.667l4.153,2.698l0.794-0.899l0.688-1.005l0.45-1.084l0.343-1.138l3.122-0.555l-1.19-1.905l0.952-0.132l0.662-0.106
l0.529-0.186l0.37-0.423l0.344-0.582l0.423-0.555l0.714-0.424l0.529-0.291l0.477-0.37l0.37-0.767l0.344-0.767l0.186-0.608
l0.132-0.476l-0.132-0.291l-0.186-0.185l-0.238-0.371l0.027-0.397l0.423-0.238l0.82-0.08l0.899-0.105l1.798,2.751l1.059,1.613
l0.45,0.847l0.238,0.82l0.105,0.661l-0.132,0.661l-0.529,0.847l-1.243,1.481l-1.931,2.037l1.667,0.132l1.693,0.106h1.666
l1.693-0.106l0.105-1.217l0.08-1.19l0.237-1.138l0.582-1.058l0.794-0.979l0.899-0.899l-0.238-0.662l0.053-0.899l0.344-0.767
l0.423-0.714l-1.376-0.132l0.768-0.873l-2.011-1.137l0.106-0.793l0.344-0.82l0.502-0.608l0.714-0.476l0.82-0.185l0.688,0.847
l0.396,0.873l0.477,0.847l0.608,0.846l0.767,0.82l0.847,0.847l0.846,0.847l0.768,0.819l0.476,0.847l0.026,0.079V42.171
l-0.847,1.27l-1.799,1.614l-1.878,0.952l-1.534,0.556l-1.032,0.291l0.609-0.9l0.582-0.952l0.741-1.27l1.138-1.852l1.375-2.143
l1.138-1.613l0.952-1.032l0.556-0.502V33.838L137.547,33.838z M137.547,72.697v4.365l-0.502,0.079l-1.058,0.079l-0.741,0.053
h-0.582l1.719-2.539l1.032-1.72L137.547,72.697z M90.355,27.464h-0.212l-0.476,0.185l-0.291,0.371l-0.106,0.476l0.106,0.476
l0.291,0.397l0.476,0.185h0.212v14.92l-0.635-0.133l-0.952-0.238h-0.82l-0.741,0.291l-0.635,0.502l-0.423,0.715l-0.714,1.243
l-0.264,0.317l-0.45,0.053l-0.37-0.132l-0.238-0.344l-0.185-1.798l-0.846-0.291l-0.714,1.058l-0.82,0.979l-0.926,0.873
l-1.006,0.741l0.238-1.27l0.186-1.243l0.105-1.27l0.026-1.27v-1.296l-0.688,0.053H78.77l-1.006-0.238l0.371-1.27l0.291-1.297
l0.132-1.27l0.105-1.322V35.32l-0.793-0.37l-0.688-0.609l-0.423-0.82l-0.132-0.846l0.714-0.582l0.714-0.661l0.794-0.979
l0.899-1.19l0.635-0.582l0.661-0.503l0.714-0.423l0.741-0.344l-0.053,0.053l-0.662-5.873l1.296,0.899l4.021,2.751l0.608,0.238
l0.714-0.106l1.931-0.661V27.464L90.355,27.464z M90.355,45.372l-1.984-0.37l-0.979,0.608l-1.19,1.957l-0.423,0.503l-0.662,0.238
l-0.661-0.027l-0.635-0.344l-0.555-0.608l-0.529,2.328l-0.238,2.275l-0.053,2.354l0.211,2.328l0.423,2.275l0.608,2.222
l0.529,2.037l1.191,4.735l0.925,4.286l0.529,2.275l0.371,2.116l0.106,1.667l-0.106,1.19l-0.371,1.138l-0.608,1.27l-1.058,1.852
l-1.852,2.804l6.163-0.291l0.396-1.455l0.45-1.455V45.372z"/>
</g>
<polygon fill="#E21D39" points="103.026,29.024 103.185,29.368 103.925,30.532 102.418,30.876 101.042,31.193 99.799,31.643 
99.005,32.014 98.582,32.437 98.477,32.913 98.635,33.283 99.138,33.68 100.46,34.288 103.37,35.082 106.438,35.981 
108.079,36.325 109.348,36.51 110.777,36.51 112.39,36.325 113.898,36.034 115.273,35.664 116.517,35.188 117.47,34.659 
118.686,34.844 120.062,35.055 121.675,35.082 123.342,34.95 125.008,34.605 126.701,33.997 128.235,33.283 129.743,32.489 
133.764,29.871 134.108,29.395 134.161,29.156 133.949,28.971 133.711,28.733 133.023,28.416 131.886,28.204 130.881,28.257 
129.743,28.495 126.331,29.395 125.326,29.553 124.373,29.553 123.447,29.5 122.628,29.315 122.019,28.971 121.358,28.654 
120.538,28.416 119.03,28.125 116.993,27.834 114.321,27.543 112.205,27.464 110.459,27.543 108.793,27.755 105.645,28.363 "/>
</g>
</svg>
